<svg
  xmlns="http://www.w3.org/2000/svg"
  viewBox="0 0 200 200"
  width="200"
  height="200"
  fill="none"
  
>
  <!-- Background for visibility -->
  <rect width="200" height="200" fill="none" />

  <!-- Moon -->
  <path
    d="M100 50c25 0 45 20 45 45s-20 45-45 45c-12.5 0-25-5-32.5-15 5 2.5 10 3.5 15 3.5 20 0 35-15 35-35s-15-35-35-35c-5 0-10 1-15 3.5C75 55 87.5 50 100 50z"
    fill="white"
  />

  <!-- Stars -->
  <circle cx="40" cy="40" r="2" fill="#FFF7" />
  <circle cx="60" cy="120" r="3" fill="#FFF7" />
  <circle cx="150" cy="70" r="2.5" fill="#FFF7" />
  <circle cx="120" cy="30" r="1.5" fill="#FFF7" />
  <circle cx="170" cy="150" r="2" fill="#FFF7" />
</svg>
