<svg xmlns="http://www.w3.org/2000/svg" viewBox="0 0 64 64" width="64" height="64">
  <g fill="#FFFFFF"> <!-- White clouds -->
    <!-- First Cloud -->
    <circle cx="8" cy="18" r="8"/>
    <circle cx="16" cy="16" r="10"/>
    <circle cx="24" cy="18" r="7"/>
    
    <!-- Second Cloud -->
    <circle cx="32" cy="18" r="9"/>
    <circle cx="40" cy="16" r="10"/>
    <circle cx="48" cy="18" r="7"/>
    
    <!-- Third Cloud (New) -->
    <circle cx="56" cy="18" r="8"/>
    <circle cx="64" cy="16" r="9"/>
  </g>

  <!-- Raindrops (Falling directly from clouds) -->
  <g fill="#FFFFFF"> <!-- White raindrops -->
    <path d="M8,35 C7,37 6,39 8,41 C10,39 9,37 8,35 Z"/> <!-- Raindrop shape -->
    <path d="M16,37 C15,39 14,41 16,43 C18,41 17,39 16,37 Z"/> <!-- Raindrop shape -->
    <path d="M24,36 C23,38 22,40 24,42 C26,40 25,38 24,36 Z"/> <!-- Raindrop shape -->
    <path d="M32,35 C31,37 30,39 32,41 C34,39 33,37 32,35 Z"/> <!-- Raindrop shape -->
    <path d="M40,37 C39,39 38,41 40,43 C42,41 41,39 40,37 Z"/> <!-- Raindrop shape -->
    <path d="M48,36 C47,38 46,40 48,42 C50,40 49,38 48,36 Z"/> <!-- Raindrop shape -->
    <path d="M56,35 C55,37 54,39 56,41 C58,39 57,37 56,35 Z"/> <!-- Raindrop shape -->
    <path d="M20,40 C19,42 18,44 20,46 C22,44 21,42 20,40 Z"/> <!-- Raindrop shape -->
    <path d="M28,42 C27,44 26,46 28,48 C30,46 29,44 28,42 Z"/> <!-- Raindrop shape -->
    <path d="M36,40 C35,42 34,44 36,46 C38,44 37,42 36,40 Z"/> <!-- Raindrop shape -->
    <path d="M4,45 C3,47 2.5,49.5 4.5,51 C6.5,49.5 5.5,47.5 4.5,45 Z"/> <!-- Raindrop shape -->
    <path d="M12,43 C11.5,45.5 11.5,47.5 12.5,49.5 C14.5 ,47.5 ,13 ,45 ,12 ,43 Z"/> <!-- Raindrop shape -->
  </g>
</svg>